# xmcd
#
# Track frame offsets:
#	150
#	14313
#	31253
#	48596
#	63441
#	78641
#	91767
#	105987
#	121597
#	134113
#	147164
#	163376
#	181574
#	197485
#	213185
#	231291
#	243891
#	260536
#	278788
#	298080
#	312545
#	329169
#	345827
#
# Disc length: 4810
#
# Revision: 3
# Processed by: cddbd v1.5.1PL0 Copyright (c) Steve Scherf et al.
# Submitted via: CDex 1.51
# Normalized: r2:DSETVAR1
#
DISCID=4c12c817
DTITLE=Various Artist - CDX 353
DYEAR=2004
DGENRE=Country
TTITLE0=Kerry Harvick - Cowgirls
TTITLE1=Randy Travis - Four Walls
TTITLE2=Big and Rich - Holy Water
TTITLE3=George Canyon - I'll Never Do Better Than You
TTITLE4=Hometown News - If I Could
TTITLE5=Amy Dalley - Living Together
TTITLE6=Jeff Bates - Long, Slow Kisses (Single Version)
TTITLE7=Jeff Bates - Long, Slow Kisses (Album Version)
TTITLE8=Malibu Storm - Long Way To Fall
TTITLE9=David Ball - Louisiana Melody
TTITLE10=Miranda Lambert - Me And Charlie Talking
TTITLE11=Jeffrey Steele - Once A Cowboy
TTITLE12=John Conlee - They Also Serve
TTITLE13=Jamie O'Neal - Trying To Find Atlantis
TTITLE14=Uncle Kracker - Writing It Down
TTITLE15=Shelly Fairchild - You Don't Lie Here Anymore
TTITLE16=Brad Johner - Free
TTITLE17=Kelly Lang - Feels Like Home
TTITLE18=Crass Family - Forever
TTITLE19=Poobah - Everybody Sang
TTITLE20=Snuffy Smith - Melissa
TTITLE21=Suzanne Edwards Alford - The Arms Of A Good Woman
TTITLE22=Danni O'Neill - What Is Me
EXTD=YEAR: 2004
EXTT0=
EXTT1=
EXTT2=
EXTT3=
EXTT4=
EXTT5=
EXTT6=
EXTT7=
EXTT8=
EXTT9=
EXTT10=
EXTT11=
EXTT12=
EXTT13=
EXTT14=
EXTT15=
EXTT16=
EXTT17=
EXTT18=
EXTT19=
EXTT20=
EXTT21=
EXTT22=
PLAYORDER=
